<?xml version="1.0" encoding="utf-8"?>
<!-- Generator: Adobe Illustrator 26.0.0, SVG Export Plug-In . SVG Version: 6.00 Build 0)  -->
<svg version="1.1" id="Capa_1" xmlns="http://www.w3.org/2000/svg" xmlns:xlink="http://www.w3.org/1999/xlink" x="0px" y="0px"
	 viewBox="0 0 800 800" style="enable-background:new 0 0 800 800;" xml:space="preserve">
<style type="text/css">
	.st0{fill:none;stroke:#FCEE21;stroke-width:7;stroke-miterlimit:10;}
	.st1{fill:none;stroke:#FD6500;stroke-width:7;stroke-miterlimit:10;}
	.st2{fill:none;stroke:#C1272D;stroke-width:7;stroke-miterlimit:10;}
	.st3{fill:#FD8433;}
	.st4{fill:#666666;}
	.st5{fill:#C1272D;}
	.st6{font-family:'AkiraExpanded-SuperBold';}
	.st7{font-size:81.7444px;}
	.st8{fill:#FCEE21;}
	.st9{font-size:58px;}
</style>
<circle class="st0" cx="105.34" cy="418.29" r="92.03"/>
<circle class="st1" cx="105.25" cy="418.75" r="94.34"/>
<circle class="st2" cx="105.25" cy="418.75" r="96.75"/>
<path class="st3" d="M62.57,370.33c0,0,31.11-21.11,58.88-20.37c0,0,35.74-3.52,60.92,30.18c0,0-21.48-42.59-60.36-42.22
	C122.01,337.92,93.86,335.7,62.57,370.33z"/>
<path class="st4" d="M43.87,406.81c0,0,6.67-40.37,39.26-61.48c0,0,21.48-15.55,52.96-10c0,0-28.52-17.04-66.29,7.78
	C69.79,343.11,36.09,362.74,43.87,406.81z"/>
<path d="M58.31,343.48c0,0-48.88,47.4-7.41,113.32c0,0,47.03,63.33,118.14,22.22c0,0-32.96,40.37-93.69,21.85
	c0,0-71.1-25.55-55.55-104.06C19.8,396.81,28.68,361.63,58.31,343.48z"/>
<g>
	<text transform="matrix(0.8384 0 0 1 16.0918 442.2246)"><tspan x="0" y="0" class="st5 st6 st7">SL</tspan><tspan x="138.78" y="0" class="st8 st6 st7">7 </tspan></text>
</g>
<text transform="matrix(1 0 0 1 211.3252 432.2559)"><tspan x="0" y="0" class="st3 st6 st9">ANIMES </tspan><tspan x="323.47" y="0" class="st5 st6 st9">SL</tspan><tspan x="421.94" y="0" class="st8 st6 st9">7</tspan></text>
</svg>
